# xmcd CD database file
#
# Track frame offsets:
#	150
#	17370
#	38387
#	58824
#	79696
#	100123
#	123561
#	145863
#	163629
#	183678
#	202594
#	221260
#	240259
#	258993
#	285196
#	306228
#	328743
#
# Disc length: 4639 seconds
#
# Revision: 0
# Processed by: cddbd v1.5.1PL0 Copyright (c) Steve Scherf et al.
# Submitted via: CDex 1.51
#
DISCID=d8121d11
DTITLE=Maná - Exitos y nuevos temas vol. 1
DYEAR=2002
DGENRE=Salsa
TTITLE0=Se me olvido otra vez (Unplugged)
TTITLE1=Corazón espinado (Dúo con Santana)
TTITLE2=Oye mi amor
TTITLE3=De piez a cabeza
TTITLE4=Como te deseo
TTITLE5=Clavado en un bar
TTITLE6=Vivir sin aire
TTITLE7=Como diablos
TTITLE8=Como un perro enloquecido
TTITLE9=Como dueles en los labios
TTITLE10=Buscandola
TTITLE11=Rayando el sol
TTITLE12=La Chula
TTITLE13=En el muelle de san blas
TTITLE14=Tu tienes lo que quiero
TTITLE15=Te llore un rio
TTITLE16=Donde jogaran los niños
EXTD=YEAR: 2002
EXTT0=
EXTT1=
EXTT2=
EXTT3=
EXTT4=
EXTT5=
EXTT6=
EXTT7=
EXTT8=
EXTT9=
EXTT10=
EXTT11=
EXTT12=
EXTT13=
EXTT14=
EXTT15=
EXTT16=
PLAYORDER=
